<svg width="153" height="115" viewBox="0 0 153 115" fill="none" xmlns="http://www.w3.org/2000/svg">
<g clip-path="url(#clip0)">
<path d="M71.7462 111.501C71.7462 113.258 55.6652 113.446 35.8731 114.683C16.0995 115.92 6.67572e-06 113.258 6.67572e-06 111.501C6.67572e-06 109.743 16.1737 106.207 35.8731 108.318C55.6652 110.44 71.7462 109.743 71.7462 111.501Z" fill="#E6E6E6"/>
<path d="M147.388 0.000191724H104.867C102.816 0.000189493 100.825 0.698602 99.2224 1.98062C97.6199 3.26264 96.501 5.05198 96.0498 7.05451L74.5651 102.395C74.3308 103.435 74.3266 104.514 74.553 105.556C74.7794 106.597 75.2308 107.577 75.8756 108.426C76.5203 109.274 77.3428 109.972 78.2855 110.469C79.2281 110.966 80.268 111.25 81.3322 111.303L125.043 113.458C127.384 113.573 129.687 112.832 131.522 111.374C133.356 109.916 134.598 107.839 135.015 105.532L147.203 38.1251L148.11 38.3843L150.442 25.6081L149.508 25.3746L152.91 6.5589C153.056 5.75298 153.022 4.92483 152.811 4.13348C152.6 3.34213 152.218 2.60707 151.69 1.9807C151.163 1.35432 150.504 0.85207 149.76 0.509735C149.016 0.167401 148.206 -0.00658178 147.388 0.000190376L147.388 0.000191724Z" fill="#3F3D56"/>
<path d="M110.465 2.05548H105.502C104.076 2.05548 102.694 2.5432 101.584 3.43766C100.474 4.33213 99.7026 5.57955 99.3988 6.97283L78.7764 101.536C78.6577 102.08 78.6578 102.644 78.7768 103.188C78.8957 103.733 79.1307 104.245 79.4657 104.69C79.8007 105.136 80.2277 105.503 80.7178 105.768C81.2078 106.033 81.7491 106.189 82.3049 106.226L125.875 109.082C127.104 109.163 128.32 108.788 129.29 108.029C130.261 107.27 130.918 106.18 131.136 104.967L148.733 7.22683C148.847 6.59422 148.821 5.9443 148.656 5.32295C148.492 4.7016 148.193 4.12396 147.781 3.63079C147.369 3.13762 146.853 2.74094 146.271 2.46875C145.689 2.19656 145.055 2.05548 144.412 2.05548H139.704C139.248 2.05548 138.805 2.20579 138.443 2.48313C138.081 2.76047 137.821 3.14937 137.703 3.58963C137.598 3.9783 137.368 4.32163 137.049 4.56647C136.73 4.81131 136.339 4.94401 135.936 4.944H113.583C112.795 4.94401 112.036 4.6465 111.458 4.11096C110.88 3.57543 110.526 2.84135 110.465 2.05548V2.05548Z" fill="white"/>
<path d="M63.8274 50.6957L67.669 58.3045L79.1557 63.5289C80.3823 65.603 84.2803 65.7617 84.5638 64.4205C84.8818 62.9158 79.8303 60.4941 79.8303 60.4941L70.2227 53.9926L69.382 48.3957L63.8274 50.6957Z" fill="#A0616A"/>
<path d="M64.2805 101.757L63.5721 107.428L67.6812 107.711L68.1062 101.757H64.2805Z" fill="#A0616A"/>
<path d="M64.8474 106.577C64.4801 106.188 64.1412 105.774 63.8334 105.336C63.2445 104.521 62.722 108.703 62.722 108.703C62.722 108.703 62.1552 110.405 62.2969 111.255C62.4386 112.106 65.6976 112.106 66.2643 111.964C66.8311 111.822 69.665 111.964 69.665 111.964H73.9158C77.5998 110.263 73.9158 109.129 73.9158 109.129C72.7823 108.987 68.9565 105.443 68.9565 105.443L68.1064 103.884C67.5396 103.742 66.9728 105.868 66.9728 105.868L64.8474 106.577Z" fill="#2F2E41"/>
<path d="M53.6536 101.828L52.945 107.499L57.0541 107.782L57.4793 101.828H53.6536Z" fill="#A0616A"/>
<path d="M54.2204 106.648C53.853 106.259 53.5142 105.845 53.2064 105.407C52.6175 104.592 52.095 108.774 52.095 108.774C52.095 108.774 51.5282 110.334 51.6699 111.184C51.8116 112.035 55.0705 112.035 55.6373 111.893C56.2041 111.751 59.038 112.035 59.038 112.035H63.2888C66.9728 110.334 63.2888 109.2 63.2888 109.2C62.1552 109.058 58.3295 105.514 58.3295 105.514L57.4793 103.955C56.9125 103.813 56.3458 105.939 56.3458 105.939L54.2204 106.648Z" fill="#2F2E41"/>
<path d="M58.3295 65.2541C57.7627 65.9629 58.0461 68.3728 58.0461 68.3728C58.0461 68.3728 57.0542 76.1696 57.4793 76.8784C57.9044 77.5872 57.1959 78.1543 56.7708 79.1466C56.3458 80.1389 55.9207 82.5488 55.9207 82.5488C53.5119 84.5335 53.6536 93.6061 53.6536 93.6061L52.8034 101.686C53.0868 102.537 57.0542 102.679 57.621 102.537C58.1878 102.395 59.8881 89.6368 59.8881 89.6368L63.7138 82.407C63.7138 82.407 63.4305 101.686 63.4305 102.537C63.4305 103.388 67.2562 102.962 68.1063 102.962C68.9565 102.962 68.9565 88.7863 68.9565 88.7863L69.8067 85.1005L74.3409 68.2311V66.2464L73.6324 65.2541C73.6324 65.2541 58.8963 64.5453 58.3295 65.2541Z" fill="#2F2E41"/>
<path d="M64.564 33.0746C66.9899 33.0746 68.9565 31.1071 68.9565 28.6801C68.9565 26.253 66.9899 24.2855 64.564 24.2855C62.1381 24.2855 60.1715 26.253 60.1715 28.6801C60.1715 31.1071 62.1381 33.0746 64.564 33.0746Z" fill="#A0616A"/>
<path d="M66.7603 30.7356C65.8699 32.7192 66.3971 35.4897 68.1772 38.5324L60.9508 35.1301L62.0844 34.1378L61.801 31.3026L66.7603 30.7356Z" fill="#A0616A"/>
<path d="M66.7603 35.2719C67.7066 35.8348 68.2726 36.8689 68.5976 37.9212C69.1992 39.8695 69.5613 41.8839 69.676 43.9198L70.0192 50.0149L74.27 66.1755C70.586 69.2942 68.4606 68.5855 63.5013 66.0338C58.542 63.4821 57.9753 66.8843 57.9753 66.8843C57.9753 66.8843 57.5502 66.7426 57.9753 66.3173C58.4003 65.892 57.9753 66.3173 57.5502 65.892C57.1251 65.4667 57.5502 65.892 57.6919 65.4667C57.8336 65.0414 57.6919 65.325 57.5502 65.1832C57.4085 65.0414 58.117 63.7656 58.117 63.7656L56.9834 53.1336L55.5665 38.1071C57.2668 35.9807 62.0844 34.1378 62.0844 34.1378L66.4769 37.2565C67.8938 37.8236 66.7603 35.5554 66.7603 35.5554L66.7603 35.2719Z" fill="#66FC30"/>
<path d="M53.2285 47.1089L52.6617 55.6145L59.8881 65.9629C59.8881 68.3729 61.1634 68.9399 61.1634 68.9399C61.6464 68.1686 62.0726 67.3632 62.4386 66.53C63.1471 64.9706 62.0135 63.6948 62.0135 63.6948L57.0542 53.2046L59.1797 47.9595L53.2285 47.1089Z" fill="#A0616A"/>
<path d="M55.6373 38.178C53.2285 39.0285 52.8035 48.2429 52.8035 48.2429C55.6373 46.6836 59.038 49.2353 59.038 49.2353C59.038 49.2353 59.7464 46.8254 60.5966 43.7066C60.8533 42.8294 60.884 41.9014 60.6858 41.0091C60.4876 40.1168 60.067 39.2892 59.463 38.6033C59.463 38.6033 58.0461 37.3274 55.6373 38.178Z" fill="#66FC30"/>
<path d="M60.5257 30.0268C61.0849 29.5793 61.8478 30.3928 61.8478 30.3928L62.2951 26.3648C62.2951 26.3648 65.0911 26.7004 66.8805 26.2529C68.6698 25.8053 68.9494 27.8753 68.9494 27.8753C69.0417 27.0394 69.0604 26.197 69.0054 25.3578C68.8935 24.3508 67.4397 23.3438 64.8674 22.6724C62.2951 22.0011 60.9531 24.9102 60.9531 24.9102C59.1637 25.8053 59.9666 30.4744 60.5257 30.0268Z" fill="#2F2E41"/>
<path d="M135.191 68.1632C135.276 68.1664 135.36 68.139 135.427 68.0859C135.494 68.0328 135.539 67.9575 135.556 67.8736L145.326 14.6725C145.335 14.6218 145.333 14.5698 145.32 14.5199C145.307 14.4701 145.283 14.4236 145.251 14.3839C145.218 14.3441 145.177 14.312 145.131 14.2897C145.084 14.2675 145.034 14.2556 144.982 14.255L100.534 13.7369H100.53C100.449 13.7372 100.372 13.7647 100.309 13.8149C100.246 13.865 100.203 13.9349 100.185 14.0132L88.6675 65.4876C88.6563 65.5379 88.6561 65.59 88.6672 65.6403C88.6782 65.6907 88.7 65.738 88.7313 65.779C88.7625 65.82 88.8023 65.8536 88.8478 65.8776C88.8934 65.9016 88.9437 65.9153 88.9952 65.9178L135.191 68.1632Z" fill="#E6E6E6"/>
<path d="M96.5093 71.5615C96.4695 71.5615 96.4308 71.575 96.3995 71.5999C96.3683 71.6247 96.3464 71.6594 96.3375 71.6983L95.927 73.4585C95.9212 73.4834 95.9209 73.5092 95.926 73.5343C95.9312 73.5593 95.9417 73.5829 95.9569 73.6035C95.972 73.6241 95.9915 73.6412 96.0139 73.6535C96.0363 73.6658 96.061 73.6731 96.0865 73.675L119.277 75.324C119.32 75.3267 119.362 75.3138 119.397 75.2876C119.431 75.2613 119.454 75.2236 119.463 75.1814L119.858 73.1449C119.862 73.1202 119.862 73.0947 119.856 73.0702C119.85 73.0457 119.839 73.0228 119.824 73.0029C119.808 72.983 119.789 72.9666 119.767 72.9549C119.744 72.9431 119.72 72.9363 119.695 72.9348L96.52 71.5619C96.5165 71.5617 96.5129 71.5615 96.5093 71.5615Z" fill="#E6E6E6"/>
<path d="M124.684 81.8641C124.726 81.8673 124.767 81.8557 124.801 81.8311C124.835 81.8066 124.86 81.7708 124.87 81.7302L125.372 79.6894C125.378 79.6643 125.379 79.6382 125.374 79.6129C125.369 79.5876 125.359 79.5637 125.343 79.5429C125.328 79.5221 125.309 79.5048 125.286 79.4923C125.264 79.4798 125.239 79.4724 125.213 79.4706L95.5979 77.3984C95.5577 77.3952 95.5177 77.406 95.4845 77.429C95.4514 77.452 95.4272 77.4857 95.4161 77.5245L94.8939 79.288C94.8864 79.3132 94.8846 79.3398 94.8887 79.3658C94.8928 79.3917 94.9026 79.4165 94.9175 79.4382C94.9324 79.4599 94.9519 79.478 94.9747 79.4912C94.9975 79.5043 95.0229 79.5122 95.0491 79.5143L124.684 81.8641Z" fill="#E6E6E6"/>
<path d="M123.094 88.4057C123.135 88.409 123.177 88.3974 123.211 88.3728C123.245 88.3483 123.269 88.3124 123.279 88.2717L123.782 86.2309C123.788 86.2059 123.789 86.1798 123.784 86.1545C123.779 86.1292 123.768 86.1052 123.753 86.0844C123.738 86.0636 123.718 86.0463 123.696 86.0338C123.673 86.0213 123.648 86.0139 123.622 86.0121L94.0075 83.9399C93.9673 83.9367 93.9272 83.9475 93.8941 83.9705C93.8609 83.9935 93.8368 84.0272 93.8256 84.066L93.3034 85.8295C93.2959 85.8547 93.2942 85.8813 93.2983 85.9073C93.3024 85.9333 93.3122 85.958 93.3271 85.9797C93.342 86.0014 93.3615 86.0195 93.3843 86.0327C93.407 86.0458 93.4325 86.0538 93.4587 86.0558L123.094 88.4057Z" fill="#E6E6E6"/>
<path d="M109.454 99.6278C109.496 99.6322 109.539 99.6211 109.573 99.5966C109.608 99.572 109.632 99.5358 109.642 99.4945L110.705 95.2424C110.711 95.2175 110.712 95.1916 110.707 95.1664C110.702 95.1412 110.692 95.1174 110.677 95.0965C110.662 95.0757 110.643 95.0583 110.621 95.0456C110.598 95.033 110.574 95.0253 110.548 95.0231L92.3613 93.4927C92.3188 93.4898 92.2767 93.5021 92.2424 93.5273C92.2081 93.5525 92.1839 93.5891 92.174 93.6305L91.2675 97.7115C91.2621 97.736 91.2619 97.7613 91.2671 97.7859C91.2722 97.8104 91.2825 97.8336 91.2972 97.8539C91.312 97.8742 91.3308 97.8911 91.3526 97.9035C91.3744 97.9159 91.3986 97.9236 91.4235 97.9259L109.454 99.6278Z" fill="#66FC30"/>
</g>
<defs>
<clipPath id="clip0">
<rect width="153" height="115" fill="white"/>
</clipPath>
</defs>
</svg>
